<?xml version="1.0" standalone="no"?>
<!DOCTYPE svg PUBLIC "-//W3C//DTD SVG 20010904//EN"
 "http://www.w3.org/TR/2001/REC-SVG-20010904/DTD/svg10.dtd">
<svg version="1.0" xmlns="http://www.w3.org/2000/svg"
 width="600.000000pt" height="400.000000pt" viewBox="0 0 600.000000 400.000000"
 preserveAspectRatio="xMidYMid meet">
<g transform="translate(0.000000,400.000000) scale(0.100000,-0.100000)"
fill="#000000" stroke="none">
<path d="M3193 3430 c-121 -26 -245 -96 -350 -198 l-76 -74 6 38 c8 48 32 81
85 117 46 31 52 51 23 67 -65 34 -185 -29 -233 -124 -23 -45 -35 -148 -21
-185 15 -37 -2 -123 -33 -172 l-28 -44 -13 50 c-13 48 -12 112 2 166 14 54
-53 42 -91 -16 -9 -13 -20 -57 -25 -97 -13 -110 -33 -150 -126 -256 -108 -124
-172 -219 -212 -316 -39 -95 -60 -223 -44 -267 10 -26 9 -37 -10 -75 -21 -44
-37 -57 -37 -30 0 8 -12 29 -26 46 -21 25 -33 30 -58 28 -34 -3 -33 0 -20 -99
5 -38 1 -55 -25 -106 -34 -66 -39 -108 -16 -133 13 -15 9 -25 -42 -106 -31
-49 -75 -129 -97 -179 -41 -89 -41 -91 -41 -210 0 -141 15 -184 90 -264 102
-109 255 -141 467 -96 45 9 200 66 251 92 27 13 63 38 80 55 18 16 95 71 172
122 77 50 209 142 293 204 309 227 489 336 651 394 81 29 230 35 306 13 130
-37 228 -112 280 -214 22 -45 25 -60 19 -109 -4 -38 0 -84 11 -137 24 -118 10
-207 -56 -350 l-23 -50 -7 60 c-8 72 -17 97 -58 152 -60 83 -154 123 -302 130
-177 9 -285 -20 -754 -205 -431 -169 -605 -218 -814 -229 -76 -5 -98 -9 -85
-16 20 -11 221 -3 274 12 19 5 67 18 105 27 128 32 258 77 500 174 277 111
516 197 536 192 4 -1 21 3 39 8 59 17 168 21 247 10 92 -12 166 -44 212 -91
41 -40 81 -122 81 -165 0 -16 7 -39 15 -50 15 -19 15 -19 31 1 81 102 122 321
87 467 -9 40 -16 77 -14 83 15 54 -64 174 -162 248 -95 72 -158 104 -243 122
-91 19 -123 19 -223 -5 -165 -40 -323 -134 -641 -381 -107 -84 -242 -183 -300
-221 -117 -78 -117 -78 -104 -78 9 0 167 98 189 117 6 5 37 29 70 53 33 24 62
46 65 50 3 3 23 19 45 36 22 16 45 34 51 39 38 34 254 195 297 222 73 45 223
118 281 138 101 33 240 37 314 8 16 -6 -9 -9 -80 -9 -71 0 -118 -5 -153 -17
-27 -9 -54 -18 -60 -18 -40 -6 -257 -121 -331 -176 -17 -13 -35 -23 -39 -23
-4 0 -23 -11 -41 -25 -19 -14 -36 -25 -40 -24 -4 0 -10 -3 -13 -8 -5 -7 -146
-113 -246 -185 -22 -16 -60 -44 -85 -62 -25 -18 -96 -67 -159 -109 -62 -42
-127 -90 -144 -106 -39 -39 -190 -105 -303 -132 -113 -28 -255 -31 -336 -6
-129 39 -217 156 -226 300 -7 120 36 242 145 412 64 99 148 248 230 410 40 77
94 181 122 230 53 94 61 118 36 108 -28 -10 -77 -92 -153 -253 -10 -21 -11
-15 -6 40 16 189 89 332 269 532 76 84 104 142 116 239 11 91 19 111 51 133
34 24 40 19 18 -16 -24 -39 -25 -67 -4 -133 28 -93 2 -166 -129 -354 -128
-183 -140 -202 -133 -208 3 -3 20 16 38 42 18 27 68 96 110 154 43 58 87 126
99 151 33 67 34 69 83 147 63 101 72 137 56 222 -16 84 -9 126 33 188 41 61
96 93 162 92 l50 0 -44 -21 c-29 -14 -53 -37 -72 -67 -25 -38 -29 -55 -29
-115 0 -67 1 -69 16 -48 8 12 20 20 25 17 5 -3 6 0 4 7 -3 8 17 37 47 67 163
165 367 240 551 201 192 -39 350 -199 402 -405 19 -76 19 -224 0 -298 -65
-250 -287 -379 -425 -248 -64 61 -76 152 -30 227 25 40 69 70 55 38 -24 -59
-17 -106 20 -130 23 -15 27 -15 50 0 43 28 58 71 52 150 -12 179 -106 302
-216 281 -134 -25 -249 -149 -430 -465 -184 -320 -311 -625 -311 -748 0 -117
68 -128 211 -33 124 82 209 158 209 187 0 14 5 34 10 45 13 23 45 25 54 4 3
-8 14 -15 23 -15 28 0 63 -29 63 -52 0 -19 -2 -20 -17 -7 -10 8 -30 21 -45 29
-25 12 -30 11 -48 -5 -11 -10 -18 -20 -15 -23 13 -14 -179 -220 -290 -312 -38
-31 -110 -84 -160 -117 -122 -81 -120 -80 -100 -49 26 39 14 53 -49 58 -31 3
-59 8 -63 12 -4 4 -10 28 -14 54 l-6 47 -2 -46 c-2 -68 15 -85 83 -82 44 2 56
0 56 -12 0 -19 -92 -80 -159 -106 -70 -26 -85 -15 -77 56 l6 50 -15 -34 c-20
-44 -19 -57 5 -81 l20 -20 -20 0 c-11 0 -29 9 -40 20 -11 11 -20 16 -20 12 0
-5 9 -17 20 -27 15 -14 29 -16 62 -11 27 4 39 4 33 -2 -16 -16 -114 -40 -138
-35 -18 4 -19 3 -7 -6 9 -7 10 -11 3 -11 -6 0 -15 5 -18 10 -3 6 -16 10 -28 9
-20 -1 -20 -2 3 -9 22 -7 21 -8 -13 -9 -58 -2 -124 35 -148 81 -17 33 -19 52
-15 111 3 40 10 90 15 112 8 34 8 37 -3 22 -20 -26 -39 -131 -34 -181 15 -132
113 -195 259 -168 204 38 619 332 826 584 74 90 83 95 136 66 23 -13 45 -27
49 -32 4 -6 31 6 61 26 75 50 228 126 312 155 88 30 220 40 306 24 129 -26
262 -107 350 -214 59 -72 130 -214 154 -307 21 -84 31 -248 17 -289 -14 -39
-7 -40 13 -1 10 19 15 57 15 112 -1 314 -203 615 -478 710 -56 19 -87 23 -182
22 -98 0 -126 -4 -193 -27 -94 -33 -222 -96 -299 -148 -31 -22 -62 -39 -67
-39 -11 0 -12 4 -15 38 -2 24 -27 47 -87 78 -52 26 -52 26 -78 6 -14 -10 -29
-34 -32 -53 -9 -41 -77 -106 -194 -184 -98 -65 -156 -80 -175 -44 -33 60 24
248 161 529 109 224 248 460 329 557 33 39 86 88 117 109 51 34 65 39 120 39
57 0 65 -3 97 -34 48 -47 76 -132 76 -233 0 -65 -3 -81 -20 -98 -42 -42 -75
-10 -65 63 8 57 -5 76 -38 54 -37 -24 -67 -79 -74 -135 -7 -63 28 -147 78
-185 129 -97 306 -22 402 170 50 100 62 155 61 268 -2 165 -61 312 -170 421
-69 70 -124 105 -210 134 -67 24 -198 34 -261 20z m-1237 -1375 c56 -39 51
-118 -12 -201 -20 -26 -45 -61 -55 -78 l-19 -31 0 32 c0 17 16 62 35 99 41 78
45 128 14 168 -19 24 -19 26 -2 26 10 0 28 -7 39 -15z"/>
<path d="M3430 3370 c8 -5 20 -10 25 -10 6 0 3 5 -5 10 -8 5 -19 10 -25 10 -5
0 -3 -5 5 -10z"/>
<path d="M3148 3349 c-42 -10 -153 -63 -162 -78 -3 -5 20 5 51 22 32 17 89 39
128 48 38 10 59 17 45 17 -14 0 -42 -4 -62 -9z"/>
<path d="M3515 3331 c56 -32 148 -122 181 -177 46 -76 36 -154 -20 -154 -30 0
-61 30 -118 115 -26 39 -60 84 -75 101 -33 37 -81 69 -90 61 -3 -4 5 -11 19
-16 31 -12 99 -87 150 -168 47 -74 80 -103 119 -103 37 0 71 42 62 79 -11 48
-54 122 -96 169 -41 45 -150 122 -171 122 -6 0 12 -13 39 -29z"/>
<path d="M3187 3330 c-95 -17 -226 -91 -325 -184 -51 -48 -99 -113 -90 -121 2
-3 45 36 94 86 99 100 178 155 271 189 50 18 77 21 147 19 46 -2 79 -1 73 3
-22 12 -122 17 -170 8z"/>
<path d="M3206 3289 c-75 -18 -172 -75 -281 -164 -42 -35 -60 -55 -45 -50 19
6 10 -8 -41 -66 -73 -83 -200 -255 -362 -494 -59 -88 -113 -159 -118 -157 -6
1 -8 -2 -5 -7 3 -5 -20 -49 -52 -97 -75 -115 -117 -187 -181 -306 -56 -106
-65 -134 -26 -76 14 20 25 42 25 47 0 6 3 11 8 11 4 0 12 10 18 23 23 49 88
165 122 217 55 85 252 379 291 435 19 28 49 70 66 95 27 39 112 156 178 245
96 129 170 206 239 248 40 25 87 51 103 58 17 6 40 16 53 22 12 6 59 11 103
11 44 1 70 4 57 7 -33 10 -106 9 -152 -2z"/>
<path d="M3052 3149 c-28 -25 -26 -63 3 -67 28 -4 67 34 63 61 -4 30 -38 33
-66 6z m58 -4 c0 -17 -39 -55 -57 -55 -20 0 -16 21 9 47 24 26 48 30 48 8z"/>
<path d="M2700 3135 c0 -14 2 -25 4 -25 2 0 6 11 8 25 3 14 1 25 -3 25 -5 0
-9 -11 -9 -25z"/>
<path d="M2762 3075 c-6 -14 -8 -25 -3 -25 8 0 23 41 17 47 -1 2 -8 -8 -14
-22z"/>
<path d="M3251 3075 c6 -5 45 -13 70 -14 9 -1 34 -13 55 -27 l39 -26 -23 25
c-13 14 -43 30 -67 36 -46 11 -82 14 -74 6z"/>
<path d="M3134 3031 c-32 -21 -75 -56 -94 -77 l-35 -39 45 41 c63 57 105 85
153 100 34 10 37 13 16 13 -14 1 -52 -16 -85 -38z"/>
<path d="M2738 2983 c-14 -16 -80 -109 -148 -208 -67 -99 -144 -207 -169 -240
-103 -132 -220 -323 -322 -525 -39 -79 -101 -190 -136 -249 -160 -258 -169
-294 -125 -497 22 -100 93 -153 144 -107 13 12 39 17 83 19 54 1 98 7 150 20
16 3 135 62 191 93 75 42 195 124 323 220 158 120 151 115 151 102 0 -7 4 -10
10 -6 5 3 7 12 3 20 -3 8 -1 15 4 15 6 0 21 10 35 22 14 13 73 61 132 107 58
46 106 88 106 93 0 13 -4 11 -243 -176 -239 -187 -266 -207 -407 -301 -205
-136 -327 -187 -450 -186 -63 0 -73 -3 -94 -26 -22 -23 -26 -24 -52 -12 -34
17 -64 66 -70 115 -2 20 -9 44 -14 54 -19 35 -9 207 11 194 5 -3 9 2 9 12 0
18 113 230 135 253 12 12 13 11 8 -8 -3 -13 -19 -48 -34 -79 -33 -63 -35 -69
-16 -50 12 12 65 123 119 248 48 113 170 339 245 455 76 117 219 326 375 546
42 60 76 109 74 109 -1 0 -14 -12 -28 -27z m-717 -1166 c-10 -9 -11 -8 -5 6 3
10 9 15 12 12 3 -3 0 -11 -7 -18z"/>
<path d="M3598 2942 c26 -49 26 -52 14 -121 -7 -39 -11 -84 -11 -99 1 -19 4
-13 10 18 26 138 21 197 -21 235 -15 14 -13 7 8 -33z"/>
<path d="M3536 2893 c13 -38 27 -99 31 -138 8 -100 16 -96 11 5 -4 63 -12 100
-32 143 -14 31 -28 57 -31 57 -2 0 7 -30 21 -67z"/>
<path d="M3697 2913 c-12 -12 -7 -50 8 -63 21 -17 45 -5 45 23 0 35 -33 60
-53 40z m37 -26 c12 -19 3 -32 -19 -24 -17 7 -21 51 -3 45 6 -2 16 -12 22 -21z"/>
<path d="M2976 2882 l-19 -27 24 22 c12 12 21 24 18 27 -2 2 -13 -8 -23 -22z"/>
<path d="M2902 2778 c-27 -40 -125 -199 -217 -353 -344 -572 -493 -766 -635
-828 -25 -11 -29 -16 -15 -16 77 -3 239 139 371 325 71 100 121 182 72 119
-13 -16 -33 -41 -46 -55 l-24 -25 23 43 c12 23 26 42 31 42 4 0 8 5 8 11 0 6
13 28 28 48 16 20 32 43 35 51 11 23 185 312 204 338 17 23 36 55 49 81 10 19
137 230 158 264 10 15 16 27 12 27 -3 0 -27 -33 -54 -72z m-508 -863 c-9 -14
-18 -25 -21 -25 -5 0 5 18 20 38 17 22 18 13 1 -13z"/>
<path d="M2858 2767 c-59 -78 -221 -332 -237 -372 -2 -5 -31 -50 -63 -98 -32
-49 -58 -90 -58 -92 0 -6 -179 -286 -201 -314 -50 -65 -89 -121 -85 -121 8 0
128 159 193 255 33 50 122 191 198 315 76 124 177 285 225 358 93 140 105 172
28 69z"/>
<path d="M2466 2745 c-38 -50 -72 -85 -77 -81 -2 3 -30 -32 -62 -77 -32 -45
-74 -102 -95 -126 -20 -25 -31 -41 -23 -37 10 7 12 3 6 -13 -10 -33 0 -25 41
32 21 28 79 104 130 167 90 114 120 158 111 166 -2 3 -16 -11 -31 -31z"/>
<path d="M2304 2617 c-56 -59 -122 -163 -111 -173 3 -3 20 21 38 53 18 32 51
78 74 103 49 55 69 80 62 80 -2 0 -31 -28 -63 -63z"/>
<path d="M3685 2626 c-15 -30 -33 -61 -42 -67 -8 -7 -19 -22 -25 -33 -8 -16
-3 -14 20 8 30 27 88 134 78 143 -2 2 -16 -21 -31 -51z"/>
<path d="M3718 2613 c-18 -39 -43 -70 -74 -95 -56 -45 -50 -50 11 -8 40 28 72
76 90 138 11 38 0 24 -27 -35z"/>
<path d="M3341 2604 c-1 -42 13 -62 68 -92 37 -21 101 16 130 75 12 25 20 47
18 50 -2 2 -10 -10 -17 -27 -19 -46 -65 -80 -109 -80 -46 0 -71 24 -81 78 l-8
37 -1 -41z"/>
<path d="M3505 2440 c-16 -7 -17 -9 -3 -9 9 -1 20 4 23 9 7 11 7 11 -20 0z"/>
<path d="M2515 2408 c-29 -17 -40 -30 -59 -68 -13 -27 -14 -31 -2 -15 9 11 33
37 53 58 39 39 41 44 8 25z"/>
<path d="M2545 2381 c-3 -11 -19 -34 -35 -50 -16 -18 -22 -31 -15 -31 19 0 65
58 65 81 0 25 -7 24 -15 0z"/>
<path d="M2647 2287 c-122 -234 -228 -449 -256 -520 -35 -88 -41 -177 -15
-212 21 -28 86 -25 158 8 65 30 220 136 281 192 37 34 35 33 -20 -8 -74 -54
-178 -115 -210 -123 -13 -3 -23 -11 -22 -16 3 -16 -66 -48 -116 -54 -58 -7
-76 14 -70 83 6 69 58 207 74 197 5 -3 9 -1 9 5 0 19 120 290 182 412 33 66
59 122 57 124 -3 2 -26 -38 -52 -88z"/>
<path d="M3678 2023 c6 -2 18 -2 25 0 6 3 1 5 -13 5 -14 0 -19 -2 -12 -5z"/>
<path d="M3425 1989 c-85 -43 -159 -94 -189 -130 -41 -48 -31 -50 20 -4 25 24
85 66 133 94 112 66 118 70 106 70 -5 0 -37 -13 -70 -30z"/>
<path d="M3871 2006 c10 -9 89 -46 89 -41 0 5 -75 45 -86 45 -4 0 -5 -2 -3 -4z"/>
<path d="M3566 1981 c-21 -11 -45 -17 -53 -14 -12 5 -14 3 -8 -7 5 -8 4 -11
-3 -6 -5 3 -61 -28 -124 -70 -125 -85 -143 -99 -113 -88 16 6 14 1 -9 -24 -41
-44 -26 -40 30 8 25 23 80 63 120 91 45 30 72 54 68 61 -4 7 -3 8 4 4 10 -6
132 50 132 60 0 6 -4 5 -44 -15z m-251 -161 c-10 -11 -23 -20 -29 -20 -6 0 0
9 14 20 32 25 38 25 15 0z"/>
<path d="M3980 1950 c8 -5 28 -10 44 -10 39 0 30 6 -19 13 -27 4 -35 3 -25 -3z"/>
<path d="M4074 1885 c-10 -25 4 -45 31 -45 15 0 25 -6 25 -14 0 -7 6 -19 14
-25 11 -9 18 -8 30 4 14 15 14 35 0 35 -3 0 -3 -4 0 -9 3 -5 -1 -14 -9 -21
-12 -10 -16 -8 -25 15 -5 14 -10 32 -10 39 0 31 -46 48 -56 21z m44 -19 c3
-13 -1 -17 -14 -14 -11 2 -20 11 -22 22 -3 13 1 17 14 14 11 -2 20 -11 22 -22z"/>
<path d="M2052 1806 c-17 -39 -15 -56 3 -22 9 16 14 34 12 39 -1 5 -8 -3 -15
-17z"/>
<path d="M2440 1817 c0 -1 -4 -18 -10 -36 -5 -19 -6 -30 -1 -25 10 11 24 64
16 64 -3 0 -5 -1 -5 -3z"/>
<path d="M3146 1765 c-25 -20 -46 -39 -46 -42 0 -4 5 -2 12 5 17 17 33 15 18
-3 -7 -8 -11 -15 -8 -15 2 0 21 20 41 45 21 25 36 45 34 45 -2 0 -25 -16 -51
-35z"/>
<path d="M3179 1709 c-19 -16 -25 -26 -14 -20 32 16 60 39 54 45 -3 3 -21 -8
-40 -25z"/>
<path d="M2268 1607 c-87 -130 -108 -169 -108 -194 1 -10 7 -2 13 17 7 19 40
76 73 125 72 108 107 165 101 165 -2 0 -38 -51 -79 -113z"/>
<path d="M3036 1680 c-22 -17 -35 -30 -30 -30 9 1 83 59 74 59 -3 0 -23 -13
-44 -29z"/>
<path d="M2430 1681 c0 -11 4 -22 9 -25 4 -3 6 6 3 19 -5 30 -12 33 -12 6z"/>
<path d="M3795 1659 c-171 -21 -401 -145 -775 -419 -188 -138 -321 -225 -419
-277 -41 -21 -67 -39 -58 -41 20 -4 174 75 255 131 75 51 299 206 385 265 156
108 328 200 472 253 84 30 99 33 220 33 120 1 134 -1 186 -25 133 -63 202
-169 229 -354 7 -49 8 -49 9 -10 0 22 -6 68 -14 103 -8 35 -13 67 -11 71 10
16 -37 95 -87 145 -101 102 -234 144 -392 125z m105 -25 c-34 -7 -108 -8 -103
-1 2 4 30 6 61 6 31 -1 50 -3 42 -5z m-123 -10 c-3 -3 -12 -4 -19 -1 -8 3 -5
6 6 6 11 1 17 -2 13 -5z m-61 -13 c-6 -9 -56 -22 -56 -14 0 4 40 21 53 22 5 1
6 -3 3 -8z"/>
<path d="M3071 1624 c-17 -14 -31 -33 -30 -42 0 -13 2 -12 9 4 4 12 21 31 37
42 15 12 25 22 21 22 -3 0 -20 -12 -37 -26z"/>
<path d="M2464 1626 c11 -9 27 -16 35 -15 14 0 14 1 1 6 -8 3 -24 10 -35 15
-20 9 -20 9 -1 -6z"/>
<path d="M2953 1614 l-28 -26 33 22 c29 20 39 30 28 30 -3 0 -18 -12 -33 -26z"/>
<path d="M2530 1610 c-13 -8 -12 -10 3 -10 9 0 17 5 17 10 0 12 -1 12 -20 0z"/>
<path d="M3102 1590 c-34 -31 -34 -37 -2 -20 16 9 48 51 38 50 -2 0 -18 -14
-36 -30z"/>
<path d="M2899 1573 c-13 -16 -12 -17 4 -4 9 7 17 15 17 17 0 8 -8 3 -21 -13z"/>
<path d="M3715 1559 c-95 -27 -222 -85 -352 -160 -117 -67 -300 -187 -310
-202 -7 -11 31 8 72 37 17 12 39 26 50 33 11 7 61 36 110 66 146 88 257 146
344 177 97 36 105 37 92 12 -19 -36 33 -58 60 -26 10 12 10 20 1 34 -9 15 -8
20 6 25 29 12 136 14 148 4 8 -7 14 -7 18 0 5 7 15 7 32 1 34 -13 41 -13 26 2
-22 22 -216 20 -297 -3z m60 -38 c7 -12 -25 -30 -43 -24 -10 4 -10 8 -1 19 13
16 35 18 44 5z"/>
<path d="M1846 1482 c-5 -18 -5 -36 -2 -39 7 -7 19 43 13 59 -2 7 -7 -2 -11
-20z"/>
<path d="M2769 1473 c-13 -16 -12 -17 4 -4 16 13 21 21 13 21 -2 0 -10 -8 -17
-17z"/>
<path d="M3899 1476 c-3 -3 -22 -6 -43 -8 -20 -1 -40 -6 -42 -10 -3 -4 -12 -8
-20 -8 -43 0 -352 -142 -581 -267 -157 -85 -90 -58 150 62 133 66 302 141 375
168 127 45 136 47 240 47 77 -1 122 -6 159 -19 42 -14 50 -15 41 -3 -7 8 -24
18 -37 24 -27 10 -234 22 -242 14z"/>
<path d="M1769 1393 c-14 -71 -7 -202 16 -263 33 -91 144 -171 235 -169 l45 1
-57 9 c-97 14 -184 83 -217 172 -21 54 -10 62 13 11 40 -84 113 -143 197 -158
24 -4 19 -1 -17 12 -91 32 -144 83 -178 171 -22 56 -16 61 15 14 64 -98 165
-124 326 -83 49 12 95 26 103 32 12 7 10 8 -5 4 -208 -56 -256 -58 -332 -21
-88 44 -125 117 -124 243 0 45 -2 82 -4 82 -2 0 -9 -26 -16 -57z"/>
<path d="M1930 1435 c0 -5 5 -17 10 -25 5 -8 10 -10 10 -5 0 6 -5 17 -10 25
-5 8 -10 11 -10 5z"/>
<path d="M1851 1392 c-1 -49 20 -106 51 -139 34 -36 51 -28 24 11 -12 19 -28
49 -35 67 -7 19 -17 43 -21 54 -5 11 -11 27 -13 35 -3 8 -6 -4 -6 -28z"/>
<path d="M3840 1411 c-94 -21 -177 -50 -290 -103 -41 -20 -115 -55 -165 -78
-224 -104 -305 -143 -302 -146 2 -2 84 32 182 76 98 44 186 81 194 82 9 2 18
5 21 8 13 14 227 93 282 104 45 10 66 14 101 24 19 5 77 9 128 7 93 -2 154
-19 142 -38 -3 -6 -1 -7 5 -3 18 11 89 -66 101 -110 6 -21 11 -59 12 -84 1
-41 1 -43 9 -16 5 16 5 49 0 75 -4 25 -6 49 -4 53 6 10 -23 68 -50 96 -61 68
-204 89 -366 53z m232 -5 c26 -3 66 -17 87 -31 38 -23 91 -88 91 -110 0 -5 -9
4 -19 21 -23 38 -73 78 -124 99 -59 24 -206 20 -322 -10 -53 -14 -110 -32
-125 -40 -16 -8 -35 -15 -42 -15 -23 1 75 41 149 61 40 11 101 24 135 28 62 7
75 7 170 -3z"/>
<path d="M2622 1366 c-103 -76 -113 -91 -17 -24 46 31 102 77 95 77 -3 0 -38
-24 -78 -53z"/>
<path d="M2708 1369 c-16 -11 -28 -26 -28 -32 0 -6 10 -1 23 10 12 11 31 25
42 31 14 8 15 11 5 11 -8 0 -27 -9 -42 -20z"/>
<path d="M2774 1372 c4 -6 -10 -22 -31 -36 -24 -17 -31 -26 -20 -26 9 0 17 4
17 9 0 5 9 12 19 16 23 7 34 32 19 41 -7 4 -8 3 -4 -4z"/>
<path d="M2465 1264 c-33 -21 -91 -54 -130 -75 -38 -21 -65 -39 -59 -39 11 0
232 124 248 140 18 18 2 11 -59 -26z"/>
<path d="M2575 1285 c-36 -17 -65 -39 -65 -50 0 -5 8 -1 18 9 10 9 36 25 58
36 44 22 35 27 -11 5z"/>
<path d="M2633 1282 c11 -17 -3 -40 -38 -62 -35 -21 -80 -27 -88 -10 -3 6 -4
5 -3 -2 1 -7 17 -14 35 -16 23 -2 42 5 71 28 40 32 49 53 28 66 -6 4 -8 3 -5
-4z"/>
<path d="M2588 1140 c-20 -11 -40 -25 -44 -32 -4 -6 10 -1 32 12 67 40 75 53
12 20z"/>
<path d="M4281 1144 c0 -11 3 -14 6 -6 3 7 2 16 -1 19 -3 4 -6 -2 -5 -13z"/>
<path d="M2455 1070 c-3 -6 1 -7 9 -4 18 7 21 14 7 14 -6 0 -13 -4 -16 -10z"/>
<path d="M2216 1001 c-4 -5 3 -7 14 -4 23 6 26 13 6 13 -8 0 -17 -4 -20 -9z"/>
<path d="M2570 996 c-6 -8 -18 -12 -26 -9 -10 3 -14 -2 -13 -18 0 -13 3 -18 6
-11 2 6 14 12 26 12 12 0 28 9 35 20 10 16 10 20 -2 20 -7 0 -19 -6 -26 -14z"/>
<path d="M2068 993 c12 -2 30 -2 40 0 9 3 -1 5 -23 4 -22 0 -30 -2 -17 -4z"/>
<path d="M2499 933 c-13 -16 -12 -17 4 -4 16 13 21 21 13 21 -2 0 -10 -8 -17
-17z"/>
<path d="M2442 918 c-5 -5 -61 -21 -126 -37 -120 -30 -149 -41 -104 -41 53 0
268 64 268 80 0 10 -28 8 -38 -2z"/>
</g>
</svg>
